<svg width="242" height="48" viewBox="0 0 242 48" fill="none" xmlns="http://www.w3.org/2000/svg">
<path d="M86.8932 20.7485C86.8932 22.4605 86.613 24.0168 86.0216 25.4175C85.3991 26.8494 84.5898 28.0633 83.5626 29.0905C82.5354 30.1177 81.2903 30.927 79.8585 31.4873C78.4266 32.0787 76.8703 32.3589 75.1894 32.3589C73.5085 32.3589 71.9522 32.0787 70.5515 31.4873C69.1196 30.927 67.8745 30.1177 66.8473 29.0905C65.8201 28.0633 65.0108 26.8494 64.4194 25.4175C63.828 24.0168 63.5479 22.4605 63.5479 20.7485C63.5479 19.0365 63.828 17.449 64.4194 16.0172C65.0108 14.6164 65.8201 13.4025 66.8473 12.3753C67.8745 11.3792 69.1196 10.601 70.5515 10.0407C71.9522 9.48046 73.5085 9.20032 75.1894 9.20032C76.8703 9.20032 78.4266 9.48046 79.8585 10.0407C81.2903 10.601 82.5354 11.3792 83.5626 12.3753C84.5898 13.4025 85.3991 14.6164 86.0216 16.0172C86.613 17.449 86.8932 19.0365 86.8932 20.7485ZM83.5626 20.7485C83.5626 19.5345 83.3758 18.4139 82.9712 17.3245C82.5665 16.2662 82.0062 15.3324 81.2903 14.5231C80.5744 13.7137 79.6717 13.0601 78.6756 12.5932C77.6173 12.1263 76.4656 11.9084 75.1894 11.9084C73.9132 11.9084 72.7615 12.1263 71.7654 12.5932C70.7382 13.0601 69.8667 13.7137 69.1507 14.5231C68.4348 15.3324 67.8745 16.2662 67.4699 17.3245C67.0652 18.4139 66.8785 19.5345 66.8785 20.7485C66.8785 21.9624 67.0652 23.1141 67.4699 24.2036C67.8745 25.293 68.4348 26.2268 69.1507 27.005C69.8667 27.8143 70.7382 28.4369 71.7654 28.9038C72.7926 29.3707 73.9132 29.5886 75.1894 29.5886C76.4656 29.5886 77.6173 29.3707 78.6445 28.9038C79.6717 28.4369 80.5744 27.8143 81.2903 27.005C82.0062 26.2268 82.5665 25.293 82.9712 24.2036C83.3758 23.1141 83.5626 21.9624 83.5626 20.7485Z" fill="#010304"/>
<path d="M92.464 39.3051H89.5381V17.0804H92.4018V19.3838H92.4952C92.9621 18.6056 93.678 17.9519 94.6118 17.4228C95.5145 16.9247 96.6039 16.6757 97.8179 16.6757C98.9073 16.6757 99.9345 16.8625 100.837 17.2671C101.709 17.6718 102.518 18.2009 103.172 18.9169C103.825 19.6328 104.323 20.4421 104.666 21.3759C105.008 22.3409 105.195 23.3369 105.195 24.4264C105.195 25.5158 105.008 26.5119 104.666 27.4768C104.323 28.4418 103.825 29.2511 103.172 29.967C102.518 30.6829 101.74 31.2121 100.837 31.6167C99.9345 32.0525 98.9073 32.2393 97.7556 32.2393C96.6973 32.2393 95.7013 32.0214 94.7674 31.5545C93.8336 31.0876 93.0866 30.465 92.5574 29.6246H92.464V39.3051ZM102.176 24.4264C102.176 23.7416 102.082 23.0879 101.864 22.4342C101.647 21.7806 101.335 21.2203 100.931 20.7222C100.526 20.2242 99.9968 19.8196 99.4054 19.5394C98.7828 19.2593 98.0669 19.1036 97.2576 19.1036C96.5106 19.1036 95.8258 19.2593 95.2343 19.5394C94.6118 19.8196 94.0826 20.2242 93.6469 20.7222C93.2111 21.2203 92.8687 21.7806 92.6508 22.4342C92.4018 23.0879 92.2773 23.7416 92.2773 24.4575C92.2773 25.1734 92.4018 25.8271 92.6508 26.4808C92.8687 27.1344 93.2111 27.6947 93.6469 28.1616C94.0826 28.6597 94.6118 29.0643 95.2343 29.3444C95.8258 29.6246 96.5106 29.7802 97.2576 29.7802C98.0669 29.7802 98.7828 29.6246 99.4054 29.3133C99.9968 29.0332 100.526 28.6285 100.931 28.1305C101.335 27.6325 101.647 27.0722 101.864 26.4185C102.082 25.7648 102.176 25.1112 102.176 24.4264Z" fill="#010304"/>
<path d="M118.555 23.1502C118.524 22.5587 118.431 22.0296 118.275 21.5004C118.088 21.0024 117.839 20.5666 117.497 20.1931C117.154 19.8196 116.719 19.5083 116.221 19.2904C115.691 19.0725 115.1 18.9791 114.415 18.9791C113.793 18.9791 113.201 19.0725 112.672 19.2904C112.112 19.5083 111.645 19.8196 111.24 20.1931C110.836 20.5666 110.493 21.0024 110.244 21.5004C109.964 22.0296 109.808 22.5587 109.777 23.1502H118.555ZM121.512 24.333V24.831C121.512 24.9867 121.512 25.1734 121.481 25.3291H109.777C109.808 25.9516 109.933 26.543 110.213 27.0722C110.462 27.6325 110.804 28.1305 111.24 28.504C111.676 28.9087 112.174 29.2511 112.765 29.469C113.326 29.6869 113.917 29.8114 114.571 29.8114C115.567 29.8114 116.438 29.5935 117.154 29.1577C117.87 28.7219 118.462 28.1928 118.866 27.5702L120.921 29.2199C120.143 30.2471 119.209 31.0253 118.15 31.4922C117.061 31.9903 115.878 32.2393 114.571 32.2393C113.45 32.2393 112.423 32.0525 111.458 31.679C110.493 31.3055 109.684 30.7763 108.999 30.0915C108.314 29.4378 107.785 28.6285 107.38 27.6636C106.976 26.6987 106.789 25.6403 106.789 24.4886C106.789 23.3369 106.976 22.2786 107.38 21.3137C107.754 20.3487 108.283 19.5394 108.968 18.8546C109.653 18.1698 110.462 17.6407 111.396 17.236C112.33 16.8625 113.326 16.6757 114.415 16.6757C115.505 16.6757 116.47 16.8625 117.372 17.2049C118.244 17.5473 118.991 18.0764 119.613 18.7301C120.205 19.3838 120.672 20.1931 121.014 21.1269C121.357 22.0918 121.512 23.1502 121.512 24.333Z" fill="#010304"/>
<path d="M127.04 17.0804C127.071 17.4539 127.102 17.8897 127.133 18.3255C127.164 18.7924 127.164 19.197 127.164 19.5083H127.258C127.444 19.1036 127.694 18.7301 128.036 18.3877C128.347 18.0453 128.721 17.7652 129.125 17.485C129.53 17.236 129.997 17.0492 130.495 16.8936C130.993 16.738 131.522 16.6757 132.051 16.6757C133.016 16.6757 133.826 16.8314 134.51 17.1426C135.195 17.485 135.755 17.9208 136.222 18.45C136.689 18.9791 137.032 19.6328 137.25 20.3487C137.467 21.0646 137.561 21.8428 137.561 22.6833V31.8346H134.635V23.6482C134.635 23.0568 134.604 22.4654 134.51 21.9362C134.417 21.407 134.23 20.909 133.981 20.5044C133.732 20.0997 133.39 19.7573 132.954 19.5083C132.518 19.2593 131.958 19.1348 131.273 19.1348C130.121 19.1348 129.156 19.5705 128.441 20.4421C127.694 21.3448 127.32 22.5276 127.32 23.9906V31.8346H124.394V20.2553C124.394 19.8507 124.394 19.3527 124.363 18.7301C124.332 18.1076 124.301 17.5473 124.27 17.0804H127.04Z" fill="#010304"/>
<path d="M146.947 27.3311H147.009L152.176 9.77545H155.569L160.705 27.3311H160.767L165.623 9.77545H168.891L162.417 31.8134H159.211L153.857 14.1021H153.795L148.441 31.8134H145.235L138.76 9.77545H142.091L146.947 27.3311Z" fill="#010304"/>
<path d="M181.117 23.1502C181.086 22.5587 180.993 22.0296 180.837 21.5004C180.65 21.0024 180.401 20.5666 180.059 20.1931C179.716 19.8196 179.281 19.5083 178.783 19.2904C178.253 19.0725 177.662 18.9791 176.977 18.9791C176.355 18.9791 175.763 19.0725 175.234 19.2904C174.674 19.5083 174.207 19.8196 173.802 20.1931C173.398 20.5666 173.055 21.0024 172.806 21.5004C172.526 22.0296 172.37 22.5587 172.339 23.1502H181.117ZM184.074 24.333V24.831C184.074 24.9867 184.074 25.1734 184.043 25.3291H172.339C172.37 25.9516 172.495 26.543 172.775 27.0722C173.024 27.6325 173.366 28.1305 173.802 28.504C174.238 28.9087 174.736 29.2511 175.327 29.469C175.888 29.6869 176.479 29.8114 177.133 29.8114C178.129 29.8114 179 29.5935 179.716 29.1577C180.432 28.7219 181.024 28.1928 181.428 27.5702L183.483 29.2199C182.705 30.2471 181.771 31.0253 180.712 31.4922C179.623 31.9903 178.44 32.2393 177.133 32.2393C176.012 32.2393 174.985 32.0525 174.02 31.679C173.055 31.3055 172.246 30.7763 171.561 30.0915C170.876 29.4378 170.347 28.6285 169.942 27.6636C169.538 26.6987 169.351 25.6403 169.351 24.4886C169.351 23.3369 169.538 22.2786 169.942 21.3137C170.316 20.3487 170.845 19.5394 171.53 18.8546C172.215 18.1698 173.024 17.6407 173.958 17.236C174.892 16.8625 175.888 16.6757 176.977 16.6757C178.067 16.6757 179.032 16.8625 179.934 17.2049C180.806 17.5473 181.553 18.0764 182.175 18.7301C182.767 19.3838 183.234 20.1931 183.576 21.1269C183.919 22.0918 184.074 23.1502 184.074 24.333Z" fill="#010304"/>
<path d="M195.954 22.2786C195.954 21.1891 195.611 20.3487 194.958 19.8196C194.304 19.2904 193.401 19.0414 192.312 19.0414C191.471 19.0414 190.693 19.197 189.977 19.5083C189.23 19.8507 188.608 20.2553 188.11 20.7534L186.553 18.8857C187.269 18.2009 188.172 17.6718 189.23 17.2671C190.257 16.8625 191.378 16.6757 192.592 16.6757C193.65 16.6757 194.553 16.8314 195.362 17.1115C196.14 17.4228 196.763 17.8274 197.261 18.3566C197.759 18.8857 198.132 19.4772 198.382 20.1931C198.631 20.909 198.755 21.6561 198.755 22.4654V28.9087C198.755 29.4067 198.786 29.9359 198.817 30.465C198.817 31.0253 198.88 31.4922 198.973 31.8346H196.327C196.171 31.1187 196.078 30.4339 196.078 29.718H195.985C195.456 30.4962 194.771 31.1187 193.961 31.5545C193.121 31.9903 192.156 32.2081 191.036 32.2081C190.444 32.2081 189.853 32.1459 189.23 31.9903C188.576 31.8346 188.016 31.5545 187.487 31.2121C186.958 30.8697 186.553 30.4028 186.211 29.8114C185.837 29.2199 185.682 28.504 185.682 27.6636C185.682 26.543 185.993 25.6403 186.584 24.9867C187.176 24.333 187.985 23.835 188.95 23.4926C189.915 23.1502 191.036 22.9323 192.249 22.8389C193.463 22.7455 194.709 22.6833 195.954 22.6833V22.2786ZM195.238 24.7999C194.522 24.7999 193.775 24.831 192.997 24.8933C192.218 24.9555 191.502 25.08 190.88 25.2668C190.226 25.4536 189.697 25.7337 189.292 26.1072C188.888 26.4808 188.67 26.9788 188.67 27.6013C188.67 28.0371 188.763 28.4106 188.95 28.6908C189.106 28.9709 189.355 29.2199 189.635 29.4067C189.915 29.5935 190.257 29.718 190.6 29.7802C190.942 29.8736 191.316 29.9047 191.689 29.9047C193.059 29.9047 194.117 29.5001 194.864 28.6597C195.58 27.8504 195.954 26.8232 195.954 25.5781V24.7999H195.238Z" fill="#010304"/>
<path d="M209.125 31.775H205.95L199.942 17.0207H203.18L207.506 28.6311H207.569L211.926 17.0207H215.039L209.125 31.775Z" fill="#010304"/>
<path d="M227.349 23.1502C227.317 22.5587 227.224 22.0296 227.068 21.5004C226.882 21.0024 226.633 20.5666 226.29 20.1931C225.948 19.8196 225.512 19.5083 225.014 19.2904C224.485 19.0725 223.893 18.9791 223.209 18.9791C222.586 18.9791 221.995 19.0725 221.466 19.2904C220.905 19.5083 220.438 19.8196 220.034 20.1931C219.629 20.5666 219.287 21.0024 219.038 21.5004C218.757 22.0296 218.602 22.5587 218.571 23.1502H227.349ZM230.306 24.333V24.831C230.306 24.9867 230.306 25.1734 230.275 25.3291H218.571C218.602 25.9516 218.726 26.543 219.007 27.0722C219.256 27.6325 219.598 28.1305 220.034 28.504C220.469 28.9087 220.968 29.2511 221.559 29.469C222.119 29.6869 222.711 29.8114 223.364 29.8114C224.36 29.8114 225.232 29.5935 225.948 29.1577C226.664 28.7219 227.255 28.1928 227.66 27.5702L229.714 29.2199C228.936 30.2471 228.002 31.0253 226.944 31.4922C225.854 31.9903 224.672 32.2393 223.364 32.2393C222.244 32.2393 221.217 32.0525 220.252 31.679C219.287 31.3055 218.477 30.7763 217.793 30.0915C217.108 29.4378 216.579 28.6285 216.174 27.6636C215.769 26.6987 215.583 25.6403 215.583 24.4886C215.583 23.3369 215.769 22.2786 216.174 21.3137C216.547 20.3487 217.077 19.5394 217.761 18.8546C218.446 18.1698 219.256 17.6407 220.189 17.236C221.123 16.8625 222.119 16.6757 223.209 16.6757C224.298 16.6757 225.263 16.8625 226.166 17.2049C227.037 17.5473 227.784 18.0764 228.407 18.7301C228.998 19.3838 229.465 20.1931 229.808 21.1269C230.15 22.0918 230.306 23.1502 230.306 24.333Z" fill="#010304"/>
<path d="M232.958 20.2553C232.958 19.8507 232.958 19.3527 232.927 18.7301C232.896 18.1076 232.865 17.5473 232.833 17.0804H235.604C235.635 17.4539 235.666 17.8897 235.697 18.3566C235.728 18.8546 235.728 19.2593 235.728 19.5705H235.822C236.226 18.699 236.849 18.0142 237.658 17.4539C238.436 16.9559 239.339 16.6757 240.335 16.6757C240.802 16.6757 241.176 16.7068 241.487 16.8002L241.362 19.5083C240.958 19.4149 240.491 19.3527 240.024 19.3527C239.308 19.3527 238.717 19.4772 238.187 19.7262C237.658 20.0063 237.254 20.3487 236.911 20.7845C236.569 21.2203 236.289 21.7183 236.133 22.2786C235.977 22.87 235.884 23.4614 235.884 24.084V31.8346H232.958V20.2553Z" fill="#010304"/>
<path fill-rule="evenodd" clip-rule="evenodd" d="M42.1567 34.0412C35.8248 41.1936 25.331 42.8972 17.0597 38.1217C8.78433 33.344 5.01685 23.4067 8.04107 14.3445L42.1567 34.0412Z" fill="#FFA1B7"/>
<path fill-rule="evenodd" clip-rule="evenodd" d="M46.2969 14.3755C49.3251 23.4353 45.5535 33.375 37.2822 38.1505C29.0069 42.9282 18.5172 41.2223 12.1812 34.0722L46.2969 14.3755Z" fill="#FFA1B7"/>
<path fill-rule="evenodd" clip-rule="evenodd" d="M27.0732 25.4159L42.1212 34.1036C41.3949 34.9233 40.6142 35.671 39.7886 36.346C38.9618 37.0205 38.0728 37.6359 37.1247 38.1832C36.2868 38.667 35.4257 39.0839 34.5476 39.4367C32.1742 40.3861 29.6406 40.8737 27.0894 40.877H27.0732H27.057C24.5065 40.8737 21.9723 40.3861 19.5988 39.4367C18.7208 39.0839 17.8596 38.667 17.0218 38.1832C16.0737 37.6359 15.1846 37.0205 14.3578 36.346C13.5323 35.671 12.7515 34.9233 12.0259 34.1036L27.0732 25.4159Z" fill="#FF1A53"/>
<path fill-rule="evenodd" clip-rule="evenodd" d="M27.2572 0C38.71 0 48.0086 9.29862 48.0086 20.7514C48.0086 32.2041 38.71 41.5027 27.2572 41.5027C15.8045 41.5027 6.50586 32.2041 6.50586 20.7514C6.50586 9.29862 15.8045 0 27.2572 0ZM27.2572 2.07514C37.565 2.07514 45.9335 10.4436 45.9335 20.7514C45.9335 31.0592 37.565 39.4276 27.2572 39.4276C16.9494 39.4276 8.58099 31.0592 8.58099 20.7514C8.58099 10.4436 16.9494 2.07514 27.2572 2.07514Z" fill="#FF1A53"/>
</svg>
